<svg viewBox="0 0 200 200" xmlns="http://www.w3.org/2000/svg"
     fill="rgb(196,223,199)"
     stroke="rgb(196,223,199)">
  <!-- Outer circle -->
  <circle cx="100" cy="100" r="95" fill="none" stroke-width="2"/>
  
  <!-- Spine elements following a sinusoidal curve -->
  <!-- Top small rectangles - curving right -->
  <rect x="98" y="22" width="6" height="4" rx="2" ry="2"/>
  <rect x="100" y="28" width="8" height="5" rx="2.5" ry="2.5" />
  <rect x="102" y="35" width="10" height="6" rx="3" ry="3" />
  
  <!-- Transitioning to larger rectangles - continuing right curve -->
  <rect x="104" y="43" width="14" height="7" rx="3.5" ry="3.5" />
  <rect x="106" y="52" width="20" height="8" rx="4" ry="4" />
  <rect x="107" y="62" width="24" height="9" rx="4.5" ry="4.5" />
  
  <!-- Peak of right curve, starting to curve back left -->
  <rect x="108" y="73" width="26" height="10" rx="5" ry="5" />
  <rect x="107" y="85" width="24" height="10" rx="5" ry="5" />
  <rect x="104" y="97" width="20" height="10" rx="5" ry="5" />
  
  <!-- Curving left through center -->
  <rect x="100" y="109" width="14" height="9" rx="4.5" ry="4.5" />
  <rect x="96" y="120" width="12" height="8" rx="4" ry="4" />
  <rect x="93" y="130" width="10" height="7" rx="3.5" ry="3.5" />
  
  <!-- Peak of left curve, starting to curve back right -->
  <rect x="92" y="139" width="8" height="6" rx="3" ry="3" />
  <rect x="94" y="147" width="10" height="5" rx="2.5" ry="2.5" />
  <rect x="96" y="154" width="12" height="4" rx="2" ry="2" />
  
  <!-- Final curve back toward center -->
  <rect x="98" y="160" width="8" height="3" rx="1.5" ry="1.5" />
  <rect x="99" y="166" width="6" height="2" rx="1" ry="1" />
  <rect x="99" y="171" width="4" height="2" rx="1" ry="1" />
  <rect x="99" y="175" width="2" height="1" rx="0.5" ry="0.5" />
</svg>